<svg xmlns="http://www.w3.org/2000/svg" width="363.2344970703125" height="365.1549987792969" viewBox="-89.83604431152344 -77.06732177734375 363.2344970703125 365.1549987792969"><title>Neo4j Graph Visualization</title><desc>Created using Neo4j (http://www.neo4j.com/)</desc><g class="layer relationships"><g class="relationship" transform="translate(135.88268461969926 259.0876679725821) rotate(330.15956142387273)"><path class="outline" fill="#A5ABB6" stroke="none" d="M 21.40063509461097,12.933012701892217 L 21.90063509461097,12.06698729810778 A 57.593445862863966 57.593445862863966 0 0 0 24.249020591476473,13.351015758870048 L 23.789795812713578,14.239335860280661 A 58.593445862863966 58.593445862863966 0 0 1 21.40063509461097,12.933012701892217 Z M 74.2799100631243,15.827787395655818 L 73.87743241925479,14.91235758065892 A 57.593445862863966 57.593445862863966 0 0 0 76.30188661817365,13.778485732838101 L 74.96816566042277,11.091258833810762 L 82.79436954219592,11.114341314590618 L 78.08018122850815,17.36145493154122 L 76.74646027075727,14.674228032513883 A 58.593445862863966 58.593445862863966 0 0 1 74.2799100631243,15.827787395655818"/><text text-anchor="middle" pointer-events="none" font-size="8px" fill="#000000" x="48.870604589020196" y="23.254317638871903" font-family="sans-serif">PRODUCED</text></g><g class="relationship" transform="translate(135.88268461969926 259.0876679725821) rotate(330.15956142387273)"><path class="outline" fill="#A5ABB6" stroke="none" d="M 25 0.5 L 25.648651017045204 0.5 L 25.648651017045204 -0.5 L 25 -0.5 Z M 72.53927601704521 0.5 L 73.18792703409041 0.5 L 73.18792703409041 3.5 L 80.18792703409041 0 L 73.18792703409041 -3.5 L 73.18792703409041 -0.5 L 72.53927601704521 -0.5 Z"/><text text-anchor="middle" pointer-events="none" font-size="8px" fill="#000000" x="49.093963517045204" y="3" font-family="sans-serif">DIRECTED</text></g><g class="relationship" transform="translate(135.88268461969926 259.0876679725821) rotate(330.15956142387273)"><path class="outline" fill="#A5ABB6" stroke="none" d="M 21.40063509461097,-12.933012701892217 L 21.90063509461097,-12.06698729810778 A 57.593445862863966 57.593445862863966 0 0 1 31.52620602690829,-16.498641117418153 L 31.193335650567498,-17.44161371116345 A 58.593445862863966 58.593445862863966 0 0 0 21.40063509461097,-12.933012701892217 Z M 66.68971915229235,-18.558352813672435 L 66.41678143902527,-17.596321106982614 A 57.593445862863966 57.593445862863966 0 0 1 76.30188661817365,-13.778485732838101 L 74.96816566042277,-11.091258833810762 L 82.79436954219592,-11.114341314590618 L 78.08018122850815,-17.36145493154122 L 76.74646027075727,-14.674228032513883 A 58.593445862863966 58.593445862863966 0 0 0 66.68971915229235,-18.558352813672435"/><text text-anchor="middle" pointer-events="none" font-size="8px" fill="#000000" x="48.8706045890202" y="-17.254317638871903" font-family="sans-serif">WROTE</text></g><g class="relationship" transform="translate(244.3984219627566 15.637211715283199) rotate(200.5659286173116)"><path class="outline" fill="#A5ABB6" stroke="none" d="M 24.018736134675446,6.953439040707552 L 24.277555179777966,5.987513214418485 A 99.54604288185688 99.54604288185688 0 0 0 25.345198407264657,6.267253165529439 L 25.0971044818814,7.235989148234694 A 100.54604288185688 100.54604288185688 0 0 1 24.018736134675446,6.953439040707552 Z M 71.785671081592,8.000206487892015 L 71.56941489172935,7.023869834710297 A 99.54604288185688 99.54604288185688 0 0 0 72.64564151690968,6.779221612360754 L 71.96443891195405,3.8575845693655646 L 79.57632838472438,5.676688374630171 L 73.5539116568505,10.674737669687673 L 72.87270905189487,7.7531006266924845 A 100.54604288185688 100.54604288185688 0 0 1 71.785671081592,8.000206487892015"/><text text-anchor="middle" pointer-events="none" font-size="8px" fill="#000000" x="48.404592184041476" y="12.866062663168606" transform="rotate(180 48.404592184041476 9.866062663168606)" font-family="sans-serif">DIRECTED</text></g><g class="relationship" transform="translate(244.3984219627566 15.637211715283199) rotate(200.5659286173116)"><path class="outline" fill="#A5ABB6" stroke="none" d="M 24.018736134675446,-6.953439040707552 L 24.277555179777966,-5.987513214418485 A 99.54604288185688 99.54604288185688 0 0 1 30.738449435609688,-7.489903480057933 L 30.54453396747305,-8.470921722098993 A 100.54604288185688 100.54604288185688 0 0 0 24.018736134675446,-6.953439040707552 Z M 66.30074289265876,-9.056193810131049 L 66.13903811060614,-8.06935463201674 A 99.54604288185688 99.54604288185688 0 0 1 72.64564151690968,-6.779221612360754 L 71.96443891195405,-3.8575845693655646 L 79.57632838472438,-5.676688374630171 L 73.5539116568505,-10.674737669687673 L 72.87270905189487,-7.7531006266924845 A 100.54604288185688 100.54604288185688 0 0 0 66.30074289265876,-9.056193810131049"/><text text-anchor="middle" pointer-events="none" font-size="8px" fill="#000000" x="48.40459218404149" y="-6.866062663168606" transform="rotate(180 48.40459218404149 -9.866062663168606)" font-family="sans-serif">WROTE</text></g><g class="relationship" transform="translate(46.88739231146356 -48.06731707810933) rotate(375.18463035468)"><path class="outline" fill="#A5ABB6" stroke="none" d="M 24.018736134675446,6.953439040707552 L 24.277555179777966,5.987513214418485 A 99.3714640263939 99.3714640263939 0 0 0 25.302652737974554,6.256336958054007 L 25.054149507057122,7.22496802519133 A 100.3714640263939 100.3714640263939 0 0 1 24.018736134675446,6.953439040707552 Z M 71.74161128770851,7.98976943839962 L 71.52496775372099,7.013518661610476 A 99.3714640263939 99.3714640263939 0 0 0 72.55832029877436,6.778415010863731 L 71.87719303823849,3.8567604017501047 L 79.48903559679547,5.676060504465626 L 73.46648997948887,10.673954489681899 L 72.785362718953,7.752299880568272 A 100.3714640263939 100.3714640263939 0 0 1 71.74161128770851,7.98976943839962"/><text text-anchor="middle" pointer-events="none" font-size="8px" fill="#000000" x="48.36097745852337" y="12.86011633115821" font-family="sans-serif">DIRECTED</text></g><g class="relationship" transform="translate(46.88739231146356 -48.06731707810933) rotate(375.18463035468)"><path class="outline" fill="#A5ABB6" stroke="none" d="M 24.018736134675446,-6.953439040707552 L 24.277555179777966,-5.987513214418485 A 99.3714640263939 99.3714640263939 0 0 1 30.695396369710274,-7.480992836082791 L 30.501161672366056,-8.46194792289748 A 100.3714640263939 100.3714640263939 0 0 0 24.018736134675446,-6.953439040707552 Z M 66.25700590713406,-9.047675207230995 L 66.09500544758781,-8.060884524711753 A 99.3714640263939 99.3714640263939 0 0 1 72.55832029877436,-6.778415010863731 L 71.87719303823849,-3.8567604017501047 L 79.48903559679547,-5.676060504465626 L 73.46648997948887,-10.673954489681899 L 72.785362718953,-7.752299880568272 A 100.3714640263939 100.3714640263939 0 0 0 66.25700590713406,-9.047675207230995"/><text text-anchor="middle" pointer-events="none" font-size="8px" fill="#000000" x="48.36097745852335" y="-6.86011633115821" font-family="sans-serif">WROTE</text></g><g class="relationship" transform="translate(-60.836045818067134 95.41974450008459) rotate(432.1113260361313)"><path class="outline" fill="#A5ABB6" stroke="none" d="M 21.40063509461097,12.933012701892217 L 21.90063509461097,12.06698729810778 A 57.179057340835456 57.179057340835456 0 0 0 31.331617917469565,16.422348971016007 L 30.99655562825836,17.364544949753203 A 58.179057340835456 58.179057340835456 0 0 1 21.40063509461097,12.933012701892217 Z M 66.48684941183406,18.485120613142747 L 66.21189333007614,17.523663826228052 A 57.179057340835456 57.179057340835456 0 0 0 75.89885060732855,13.77193475610878 L 74.56573907887982,11.084405472041897 L 82.39193752489274,11.109262737072859 L 77.67633264526022,17.355307134864624 L 76.34322111681148,14.66777785079774 A 58.179057340835456 58.179057340835456 0 0 1 66.48684941183406,18.485120613142747"/><text text-anchor="middle" pointer-events="none" font-size="8px" fill="#000000" x="48.66990398203071" y="23.198799003142874" font-family="sans-serif">WROTE</text></g><g class="relationship" transform="translate(-60.836045818067134 95.41974450008459) rotate(432.1113260361313)"><path class="outline" fill="#A5ABB6" stroke="none" d="M 25 0.5 L 25.44869494605838 0.5 L 25.44869494605838 -0.5 L 25 -0.5 Z M 72.33931994605838 0.5 L 72.78801489211676 0.5 L 72.78801489211676 3.5 L 79.78801489211676 0 L 72.78801489211676 -3.5 L 72.78801489211676 -0.5 L 72.33931994605838 -0.5 Z"/><text text-anchor="middle" pointer-events="none" font-size="8px" fill="#000000" x="48.89400744605838" y="3" font-family="sans-serif">DIRECTED</text></g><g class="relationship" transform="translate(-60.836045818067134 95.41974450008459) rotate(432.1113260361313)"><path class="outline" fill="#A5ABB6" stroke="none" d="M 21.40063509461097,-12.933012701892217 L 21.90063509461097,-12.06698729810778 A 57.179057340835456 57.179057340835456 0 0 1 24.06387506281886,-13.254445712766682 L 23.601707795095525,-14.141238482609303 A 58.179057340835456 58.179057340835456 0 0 0 21.40063509461097,-12.933012701892217 Z M 74.0703112578274,-15.73474145980267 L 73.66500824037462,-14.820559057847966 A 57.179057340835456 57.179057340835456 0 0 1 75.89885060732855,-13.77193475610878 L 74.56573907887982,-11.084405472041897 L 82.39193752489274,-11.109262737072859 L 77.67633264526022,-17.355307134864624 L 76.34322111681148,-14.66777785079774 A 58.179057340835456 58.179057340835456 0 0 0 74.0703112578274,-15.73474145980267"/><text text-anchor="middle" pointer-events="none" font-size="8px" fill="#000000" x="48.66990398203071" y="-17.198799003142874" font-family="sans-serif">PRODUCED</text></g></g><g class="layer nodes"><g class="node" transform="translate(135.88268461969926,259.0876679725821)"><circle class="outline" cx="0" cy="0" r="25" fill="#57C7E3" stroke="#23b3d7" stroke-width="2px"/><text text-anchor="middle" pointer-events="none" font-family="sans-serif" dy="1.5625" font-size="25" fill="#2A2C34"/><text text-anchor="middle" pointer-events="none" font-family="sans-serif" dy="1.5625" font-size="25" fill="#2A2C34"/><text text-anchor="middle" pointer-events="none" x="0" y="0" font-size="10px" fill="#2A2C34" font-family="sans-serif"> Cameron</text><text text-anchor="middle" pointer-events="none" x="0" y="10" font-size="10px" fill="#2A2C34" font-family="sans-serif"> Crowe</text></g><g class="node" transform="translate(227.12421563488638,206.7475971689065)"><circle class="outline" cx="0" cy="0" r="25" fill="#F79767" stroke="#f36924" stroke-width="2px"/><text text-anchor="middle" pointer-events="none" font-family="sans-serif" dy="1.5625" font-size="25" fill="#FFFFFF"/><text text-anchor="middle" pointer-events="none" font-family="sans-serif" dy="1.5625" font-size="25" fill="#FFFFFF"/><text text-anchor="middle" pointer-events="none" x="0" y="0" font-size="10px" fill="#FFFFFF" font-family="sans-serif"> Jerry</text><text text-anchor="middle" pointer-events="none" x="0" y="10" font-size="10px" fill="#FFFFFF" font-family="sans-serif"> Maguire</text></g><g class="node" transform="translate(244.3984219627566,15.637211715283199)"><circle class="outline" cx="0" cy="0" r="25" fill="#57C7E3" stroke="#23b3d7" stroke-width="2px"/><text text-anchor="middle" pointer-events="none" font-family="sans-serif" dy="1.5625" font-size="25" fill="#2A2C34"/><text text-anchor="middle" pointer-events="none" font-family="sans-serif" dy="1.5625" font-size="25" fill="#2A2C34"/><text text-anchor="middle" pointer-events="none" x="0" y="0" font-size="10px" fill="#2A2C34" font-family="sans-serif"> Lana</text><text text-anchor="middle" pointer-events="none" x="0" y="10" font-size="10px" fill="#2A2C34" font-family="sans-serif"> Wacho…</text></g><g class="node" transform="translate(147.09829631648748,-20.869480959947502)"><circle class="outline" cx="0" cy="0" r="25" fill="#F79767" stroke="#f36924" stroke-width="2px"/><text text-anchor="middle" pointer-events="none" font-family="sans-serif" dy="1.5625" font-size="25" fill="#FFFFFF"/><text text-anchor="middle" pointer-events="none" font-family="sans-serif" dy="1.5625" font-size="25" fill="#FFFFFF"/><text text-anchor="middle" pointer-events="none" x="0" y="0" font-size="10px" fill="#FFFFFF" font-family="sans-serif"> Speed</text><text text-anchor="middle" pointer-events="none" x="0" y="10" font-size="10px" fill="#FFFFFF" font-family="sans-serif"> Racer</text></g><g class="node" transform="translate(46.88739231146356,-48.06731707810933)"><circle class="outline" cx="0" cy="0" r="25" fill="#57C7E3" stroke="#23b3d7" stroke-width="2px"/><text text-anchor="middle" pointer-events="none" font-family="sans-serif" dy="1.5625" font-size="25" fill="#2A2C34"/><text text-anchor="middle" pointer-events="none" font-family="sans-serif" dy="1.5625" font-size="25" fill="#2A2C34"/><text text-anchor="middle" pointer-events="none" x="0" y="0" font-size="10px" fill="#2A2C34" font-family="sans-serif"> Lilly</text><text text-anchor="middle" pointer-events="none" x="0" y="10" font-size="10px" fill="#2A2C34" font-family="sans-serif"> Wacho…</text></g><g class="node" transform="translate(-60.836045818067134,95.41974450008459)"><circle class="outline" cx="0" cy="0" r="25" fill="#57C7E3" stroke="#23b3d7" stroke-width="2px"/><text text-anchor="middle" pointer-events="none" font-family="sans-serif" dy="1.5625" font-size="25" fill="#2A2C34"/><text text-anchor="middle" pointer-events="none" font-family="sans-serif" dy="1.5625" font-size="25" fill="#2A2C34"/><text text-anchor="middle" pointer-events="none" x="0" y="0" font-size="10px" fill="#2A2C34" font-family="sans-serif"> Nancy</text><text text-anchor="middle" pointer-events="none" x="0" y="10" font-size="10px" fill="#2A2C34" font-family="sans-serif"> Meyers</text></g><g class="node" transform="translate(-28.648468064453798,195.14179774501923)"><circle class="outline" cx="0" cy="0" r="25" fill="#F79767" stroke="#f36924" stroke-width="2px"/><text text-anchor="middle" pointer-events="none" font-family="sans-serif" dy="1.5625" font-size="25" fill="#FFFFFF"/><text text-anchor="middle" pointer-events="none" x="0" y="5" font-size="10px" fill="#FFFFFF" font-family="sans-serif"> Somethi…</text></g></g></svg>