<svg xmlns="http://www.w3.org/2000/svg" width="237.76930236816406" height="246.59451293945312" viewBox="-9.60377311706543 -11.030086517333984 237.76930236816406 246.59451293945312"><title>Neo4j Graph Visualization</title><desc>Created using Neo4j (http://www.neo4j.com/)</desc><g class="layer relationships"><g class="relationship" transform="translate(125.30066273255342 126.88997603132604) rotate(407.6481976382694)"><path class="outline" fill="#A5ABB6" stroke="none" d="M 25 0.5 L 27.62404152525123 0.5 L 27.62404152525123 -0.5 L 25 -0.5 Z M 73.18654152525123 0.5 L 75.81058305050246 0.5 L 75.81058305050246 3.5 L 82.81058305050246 0 L 75.81058305050246 -3.5 L 75.81058305050246 -0.5 L 73.18654152525123 -0.5 Z"/><text text-anchor="middle" pointer-events="none" font-size="8px" fill="#000000" x="50.40529152525123" y="3" font-family="sans-serif">ACTED_IN</text></g><g class="relationship" transform="translate(125.30066273255342 126.88997603132604) rotate(310.8526192287896)"><path class="outline" fill="#A5ABB6" stroke="none" d="M 25 0.5 L 30.180385802735422 0.5 L 30.180385802735422 -0.5 L 25 -0.5 Z M 75.74288580273543 0.5 L 80.92327160547084 0.5 L 80.92327160547084 3.5 L 87.92327160547084 0 L 80.92327160547084 -3.5 L 80.92327160547084 -0.5 L 75.74288580273543 -0.5 Z"/><text text-anchor="middle" pointer-events="none" font-size="8px" fill="#000000" x="52.96163580273542" y="3" font-family="sans-serif">ACTED_IN</text></g><g class="relationship" transform="translate(125.30066273255342 126.88997603132604) rotate(254.13244908221213)"><path class="outline" fill="#A5ABB6" stroke="none" d="M 25 0.5 L 30.33611137819637 0.5 L 30.33611137819637 -0.5 L 25 -0.5 Z M 75.89861137819636 0.5 L 81.23472275639274 0.5 L 81.23472275639274 3.5 L 88.23472275639274 0 L 81.23472275639274 -3.5 L 81.23472275639274 -0.5 L 75.89861137819636 -0.5 Z"/><text text-anchor="middle" pointer-events="none" font-size="8px" fill="#000000" x="53.11736137819637" y="3" transform="rotate(180 53.11736137819637 0)" font-family="sans-serif">ACTED_IN</text></g><g class="relationship" transform="translate(125.30066273255342 126.88997603132604) rotate(200.7380292677076)"><path class="outline" fill="#A5ABB6" stroke="none" d="M 25 0.5 L 30.339468958584725 0.5 L 30.339468958584725 -0.5 L 25 -0.5 Z M 75.90196895858472 0.5 L 81.24143791716945 0.5 L 81.24143791716945 3.5 L 88.24143791716945 0 L 81.24143791716945 -3.5 L 81.24143791716945 -0.5 L 75.90196895858472 -0.5 Z"/><text text-anchor="middle" pointer-events="none" font-size="8px" fill="#000000" x="53.120718958584725" y="3" transform="rotate(180 53.120718958584725 0)" font-family="sans-serif">ACTED_IN</text></g><g class="relationship" transform="translate(125.30066273255342 126.88997603132604) rotate(504.08631298388474)"><path class="outline" fill="#A5ABB6" stroke="none" d="M 25 0.5 L 30.19565218643465 0.5 L 30.19565218643465 -0.5 L 25 -0.5 Z M 75.75815218643464 0.5 L 80.9538043728693 0.5 L 80.9538043728693 3.5 L 87.9538043728693 0 L 80.9538043728693 -3.5 L 80.9538043728693 -0.5 L 75.75815218643464 -0.5 Z"/><text text-anchor="middle" pointer-events="none" font-size="8px" fill="#000000" x="52.97690218643465" y="3" transform="rotate(180 52.97690218643465 0)" font-family="sans-serif">ACTED_IN</text></g></g><g class="layer nodes"><g class="node" transform="translate(125.30066273255342,126.88997603132604)"><circle class="outline" cx="0" cy="0" r="25" fill="#57C7E3" stroke="#23b3d7" stroke-width="2px"/><text text-anchor="middle" pointer-events="none" font-family="sans-serif" dy="1.5625" font-size="25" fill="#2A2C34"/><text text-anchor="middle" pointer-events="none" font-family="sans-serif" dy="1.5625" font-size="25" fill="#2A2C34"/><text text-anchor="middle" pointer-events="none" x="0" y="0" font-size="10px" fill="#2A2C34" font-family="sans-serif"> Hugo</text><text text-anchor="middle" pointer-events="none" x="0" y="10" font-size="10px" fill="#2A2C34" font-family="sans-serif"> Weaving</text></g><g class="node" transform="translate(197.93059927280973,206.56440188961278)"><circle class="outline" cx="0" cy="0" r="25" fill="#F79767" stroke="#f36924" stroke-width="2px"/><text text-anchor="middle" pointer-events="none" font-family="sans-serif" dy="1.5625" font-size="25" fill="#FFFFFF"/><text text-anchor="middle" pointer-events="none" font-family="sans-serif" dy="1.5625" font-size="25" fill="#FFFFFF"/><text text-anchor="middle" pointer-events="none" x="0" y="0" font-size="10px" fill="#FFFFFF" font-family="sans-serif"> Cloud</text><text text-anchor="middle" pointer-events="none" x="0" y="10" font-size="10px" fill="#FFFFFF" font-family="sans-serif"> Atlas</text></g><g class="node" transform="translate(199.16552912700945,41.475417655062714)"><circle class="outline" cx="0" cy="0" r="25" fill="#F79767" stroke="#f36924" stroke-width="2px"/><text text-anchor="middle" pointer-events="none" font-family="sans-serif" dy="1.5625" font-size="25" fill="#FFFFFF"/><text text-anchor="middle" pointer-events="none" font-family="sans-serif" dy="1.5625" font-size="25" fill="#FFFFFF"/><text text-anchor="middle" pointer-events="none" x="0" y="0" font-size="10px" fill="#FFFFFF" font-family="sans-serif"> V for</text><text text-anchor="middle" pointer-events="none" x="0" y="10" font-size="10px" fill="#FFFFFF" font-family="sans-serif"> Vendetta</text></g><g class="node" transform="translate(94.34064773888475,17.96991401652118)"><circle class="outline" cx="0" cy="0" r="25" fill="#F79767" stroke="#f36924" stroke-width="2px"/><text text-anchor="middle" pointer-events="none" font-family="sans-serif" dy="1.5625" font-size="25" fill="#FFFFFF"/><text text-anchor="middle" pointer-events="none" font-family="sans-serif" dy="1.5625" font-size="25" fill="#FFFFFF"/><text text-anchor="middle" pointer-events="none" font-family="sans-serif" dy="1.5625" font-size="25" fill="#FFFFFF"/><text text-anchor="middle" pointer-events="none" x="0" y="-5" font-size="10px" fill="#FFFFFF" font-family="sans-serif"> The</text><text text-anchor="middle" pointer-events="none" x="0" y="5" font-size="10px" fill="#FFFFFF" font-family="sans-serif"> Matrix</text><text text-anchor="middle" pointer-events="none" x="0" y="15" font-size="10px" fill="#FFFFFF" font-family="sans-serif"> Revol…</text></g><g class="node" transform="translate(19.39622694377774,86.79167504725405)"><circle class="outline" cx="0" cy="0" r="25" fill="#F79767" stroke="#f36924" stroke-width="2px"/><text text-anchor="middle" pointer-events="none" font-family="sans-serif" dy="1.5625" font-size="25" fill="#FFFFFF"/><text text-anchor="middle" pointer-events="none" font-family="sans-serif" dy="1.5625" font-size="25" fill="#FFFFFF"/><text text-anchor="middle" pointer-events="none" font-family="sans-serif" dy="1.5625" font-size="25" fill="#FFFFFF"/><text text-anchor="middle" pointer-events="none" x="0" y="-5" font-size="10px" fill="#FFFFFF" font-family="sans-serif"> The</text><text text-anchor="middle" pointer-events="none" x="0" y="5" font-size="10px" fill="#FFFFFF" font-family="sans-serif"> Matrix</text><text text-anchor="middle" pointer-events="none" x="0" y="15" font-size="10px" fill="#FFFFFF" font-family="sans-serif"> Reloa…</text></g><g class="node" transform="translate(33.8192023221073,193.14481980501859)"><circle class="outline" cx="0" cy="0" r="25" fill="#F79767" stroke="#f36924" stroke-width="2px"/><text text-anchor="middle" pointer-events="none" font-family="sans-serif" dy="1.5625" font-size="25" fill="#FFFFFF"/><text text-anchor="middle" pointer-events="none" font-family="sans-serif" dy="1.5625" font-size="25" fill="#FFFFFF"/><text text-anchor="middle" pointer-events="none" x="0" y="0" font-size="10px" fill="#FFFFFF" font-family="sans-serif"> The</text><text text-anchor="middle" pointer-events="none" x="0" y="10" font-size="10px" fill="#FFFFFF" font-family="sans-serif"> Matrix</text></g></g></svg>